<svg xmlns="http://www.w3.org/2000/svg" xmlns:xlink="http://www.w3.org/1999/xlink"><defs><style>
    .sprite-symbol-usage {display: none;}
    .sprite-symbol-usage:target {display: inline;}
  </style><symbol fill="none" viewBox="0 0 10 19" id="fb"><path d="m9.345 10.688.518-3.44H6.621v-2.23c0-.941.453-1.858 1.905-1.858H10V.232S8.662 0 7.383 0c-2.67 0-4.415 1.647-4.415 4.628v2.62H0v3.44h2.968V19h3.653v-8.313h2.724Z" fill="currentColor" /></symbol><symbol fill="none" viewBox="0 0 7 15" id="lighting"><path fill-rule="evenodd" clip-rule="evenodd" d="M6.978 6.958a.213.213 0 0 0-.184-.114l-2.975-.072L6.31.275a.202.202 0 0 0-.104-.254.215.215 0 0 0-.273.074L.033 9.17a.2.2 0 0 0-.003.215.213.213 0 0 0 .198.098l2.934-.226-2.39 5.46a.201.201 0 0 0 .09.257.213.213 0 0 0 .275-.058L6.96 7.17a.2.2 0 0 0 .02-.211" fill="currentColor" /></symbol><symbol viewBox="0 0 36 28" id="rss"><text transform="translate(18 23)" fill="currentColor" font-size="21" font-family="SegoeUI, Segoe UI"><tspan x="-17.437" y="0">RSS</tspan></text></symbol><symbol fill="none" viewBox="0 0 18 18" id="search"><path fill-rule="evenodd" clip-rule="evenodd" d="M12.502 11h-.794l-.276-.274A6.47 6.47 0 0 0 13 6.5 6.5 6.5 0 1 0 6.5 13a6.47 6.47 0 0 0 4.225-1.566l.276.274v.792l4.998 4.991 1.491-1.49-4.988-5ZM6.5 11a4.5 4.5 0 1 1 0-9 4.5 4.5 0 0 1 0 9Z" fill="currentColor" /></symbol><symbol viewBox="0 0 7.071 7.071" id="trangle"><path d="m3.536 0 3.536 3.536L3.536 7.07Z" fill="#fff" /></symbol><symbol fill="none" viewBox="0 0 20 16" id="tw"><path d="M17.944 3.987c.013.175.013.35.013.526C17.957 9.85 13.833 16 6.294 16c-2.322 0-4.48-.662-6.294-1.813.33.038.647.05.99.05 1.916 0 3.68-.637 5.089-1.725-1.802-.037-3.312-1.2-3.833-2.8.254.038.508.063.774.063.368 0 .736-.05 1.079-.137-1.878-.376-3.287-2-3.287-3.963v-.05c.546.3 1.18.488 1.853.512A4.02 4.02 0 0 1 .838 2.775c0-.75.203-1.438.558-2.038a11.71 11.71 0 0 0 8.452 4.225 4.493 4.493 0 0 1-.102-.924c0-2.226 1.828-4.038 4.1-4.038 1.18 0 2.245.487 2.994 1.275A8.145 8.145 0 0 0 19.442.3a4.038 4.038 0 0 1-1.802 2.225A8.316 8.316 0 0 0 20 1.9a8.74 8.74 0 0 1-2.056 2.087Z" fill="currentColor" /></symbol><symbol fill="none" viewBox="0 0 20 14" id="youtube"><path fill-rule="evenodd" clip-rule="evenodd" d="M17.814.419c.86.23 1.538.91 1.768 1.772C20 3.753 20 7.014 20 7.014s0 3.26-.418 4.824a2.47 2.47 0 0 1-1.768 1.743C16.254 14 10 14 10 14s-6.254 0-7.814-.419a2.47 2.47 0 0 1-1.768-1.743C0 10.275 0 7.014 0 7.014s0-3.26.418-4.823A2.507 2.507 0 0 1 2.186.419C3.746 0 10 0 10 0s6.254 0 7.814.419Zm-4.632 6.595-5.227-2.96v5.92l5.227-2.96Z" fill="currentColor" /></symbol></defs><use id="fb-usage" xlink:href="#fb" class="sprite-symbol-usage" /><use id="lighting-usage" xlink:href="#lighting" class="sprite-symbol-usage" /><use id="rss-usage" xlink:href="#rss" class="sprite-symbol-usage" /><use id="search-usage" xlink:href="#search" class="sprite-symbol-usage" /><use id="trangle-usage" xlink:href="#trangle" class="sprite-symbol-usage" /><use id="tw-usage" xlink:href="#tw" class="sprite-symbol-usage" /><use id="youtube-usage" xlink:href="#youtube" class="sprite-symbol-usage" /></svg>