<svg xmlns="http://www.w3.org/2000/svg" xmlns:xlink="http://www.w3.org/1999/xlink"><defs><style>
    .sprite-symbol-usage {display: none;}
    .sprite-symbol-usage:target {display: inline;}
  </style><symbol viewBox="0 0 18 10" id="arrow_lg"><path d="m12.5.137-.284.276a.46.46 0 0 0 0 .663l3.372 3.26H.482A.476.476 0 0 0 0 4.8v.4a.476.476 0 0 0 .482.469h15.1l-3.372 3.26a.46.46 0 0 0 0 .663l.284.276a.492.492 0 0 0 .682 0l4.68-4.531a.46.46 0 0 0 0-.663L13.179.137a.492.492 0 0 0-.679 0Z" fill="#fff" /></symbol><symbol viewBox="0 0 11.314 11.314" id="arrow_sm"><path d="M5.657 11.314 0 5.657l.707-.707 4.95 4.95 4.95-4.95.707.707Z" /></symbol><symbol viewBox="0 0 19.737 15.683" id="burger"><path d="M19.472 15.683H.265A.264.264 0 0 1 0 15.42v-1.058a.265.265 0 0 1 .265-.262h19.207a.265.265 0 0 1 .265.265v1.055a.264.264 0 0 1-.265.263Zm0-7.049H.265A.264.264 0 0 1 0 8.371V7.313a.265.265 0 0 1 .265-.265h19.207a.265.265 0 0 1 .265.265v1.058a.264.264 0 0 1-.265.264Zm0-7.049H.265A.264.264 0 0 1 0 1.322V.265A.265.265 0 0 1 .265 0h19.207a.265.265 0 0 1 .265.265v1.057a.264.264 0 0 1-.265.264Z" fill="#808284" /></symbol><symbol viewBox="0 0 16 16" id="close"><path d="m9.7 8 5.128-5.128 1.058-1.058a.4.4 0 0 0 0-.566L14.751.117a.4.4 0 0 0-.565 0L8 6.3 1.814.117a.4.4 0 0 0-.566 0L.117 1.248a.4.4 0 0 0 0 .565L6.3 8 .117 14.186a.4.4 0 0 0 0 .565l1.131 1.132a.4.4 0 0 0 .565 0L8 9.7l5.128 5.128 1.058 1.058a.4.4 0 0 0 .565 0l1.132-1.132a.4.4 0 0 0 0-.565Z" fill="#fff" /></symbol><symbol viewBox="0 0 8.227 15.36" id="facebook"><path d="m7.688 8.64.427-2.78H5.447v-1.8a1.39 1.39 0 0 1 1.567-1.5h1.213V.188A14.787 14.787 0 0 0 6.074 0a3.394 3.394 0 0 0-3.632 3.742V5.86H0v2.78h2.442v6.72h3.005V8.64Z" /></symbol><symbol viewBox="0 0 15 17" id="filter"><path d="M12.589 17h-.535a.267.267 0 0 1-.268-.266V8.5h-1.34a.8.8 0 0 1-.8-.8V6.109a.8.8 0 0 1 .8-.8h1.339V.266A.267.267 0 0 1 12.054 0h.535a.267.267 0 0 1 .268.266v5.047H14.2a.8.8 0 0 1 .8.8V7.7a.8.8 0 0 1-.8.8h-1.343v8.235a.267.267 0 0 1-.268.265ZM10.715 6.375v1.063h3.214V6.375ZM7.768 17h-.536a.267.267 0 0 1-.268-.266v-2.922H5.625a.8.8 0 0 1-.8-.8v-1.59a.8.8 0 0 1 .8-.8h1.339V.266A.267.267 0 0 1 7.232 0h.535a.267.267 0 0 1 .268.266v10.36h1.34a.8.8 0 0 1 .8.8v1.594a.8.8 0 0 1-.8.8H8.036v2.922a.267.267 0 0 1-.268.258Zm-1.875-5.313v1.063h3.214v-1.063ZM2.947 17h-.536a.267.267 0 0 1-.268-.266V6.375H.8a.8.8 0 0 1-.8-.8V3.984a.8.8 0 0 1 .8-.8h1.343V.266A.267.267 0 0 1 2.411 0h.536a.267.267 0 0 1 .267.266v2.922h1.34a.8.8 0 0 1 .8.8v1.59a.8.8 0 0 1-.8.8h-1.34v10.36a.267.267 0 0 1-.267.262ZM1.071 4.25v1.063h3.215V4.25Z" /></symbol><symbol viewBox="0 0 13.447 13.444" id="instagram"><path d="M6.723 13.445c-1.2 0-2.26-.018-2.773-.047a3.989 3.989 0 0 1-2.817-1.086A3.952 3.952 0 0 1 .047 9.494c-.062-1.115-.062-4.432 0-5.547A3.968 3.968 0 0 1 1.133 1.13 3.974 3.974 0 0 1 3.95.047C4.463.018 5.526 0 6.723 0S8.984.018 9.5.047a3.979 3.979 0 0 1 2.817 1.086A3.952 3.952 0 0 1 13.4 3.95c.063 1.114.063 4.43 0 5.544a3.976 3.976 0 0 1-1.086 2.817A3.952 3.952 0 0 1 9.5 13.4c-.517.027-1.579.045-2.777.045Zm0-1.211h1.176a9.525 9.525 0 0 0 2.783-.278 2.274 2.274 0 0 0 1.278-1.278 12.1 12.1 0 0 0 .28-3.478v-.957a12.105 12.105 0 0 0-.273-3.484 2.273 2.273 0 0 0-1.278-1.278A9.626 9.626 0 0 0 7.89 1.2H5.537a9.474 9.474 0 0 0-2.775.278 2.271 2.271 0 0 0-1.278 1.281 12.23 12.23 0 0 0-.273 3.493v.949a12.114 12.114 0 0 0 .273 3.485 2.275 2.275 0 0 0 1.278 1.278 9.687 9.687 0 0 0 2.807.277h.69Zm0-2.065a3.447 3.447 0 1 1 3.446-3.447 3.451 3.451 0 0 1-3.443 3.447Zm0-5.688a2.241 2.241 0 1 0 2.24 2.241 2.244 2.244 0 0 0-2.237-2.241Zm3.587-.543a.8.8 0 1 1 .8-.8.8.8 0 0 1-.797.8Z" /></symbol><symbol viewBox="0 0 14 14" id="search"><path data-name="Combined Shape" d="M9.016 9.727a5.506 5.506 0 1 1 .66-.651L14 13.348l-.66.653ZM1 5.5A4.5 4.5 0 1 0 5.5 1 4.505 4.505 0 0 0 1 5.5Z" /></symbol><symbol viewBox="0 0 15.36 12.475" id="twitter"><path d="M13.781 3.109c.01.136.01.273.01.409a8.9 8.9 0 0 1-8.957 8.957A8.9 8.9 0 0 1 0 11.062a6.512 6.512 0 0 0 .76.039 6.3 6.3 0 0 0 3.908-1.345 3.154 3.154 0 0 1-2.943-2.183 3.97 3.97 0 0 0 .595.049 3.329 3.329 0 0 0 .828-.107 3.148 3.148 0 0 1-2.524-3.09v-.039a3.17 3.17 0 0 0 1.423.4A3.153 3.153 0 0 1 1.072.575a8.948 8.948 0 0 0 6.491 3.294 3.554 3.554 0 0 1-.078-.721A3.151 3.151 0 0 1 12.933.994a6.2 6.2 0 0 0 2-.76 3.14 3.14 0 0 1-1.384 1.735 6.311 6.311 0 0 0 1.813-.487 6.767 6.767 0 0 1-1.581 1.627Z" /></symbol></defs><use id="arrow_lg-usage" xlink:href="#arrow_lg" class="sprite-symbol-usage" /><use id="arrow_sm-usage" xlink:href="#arrow_sm" class="sprite-symbol-usage" /><use id="burger-usage" xlink:href="#burger" class="sprite-symbol-usage" /><use id="close-usage" xlink:href="#close" class="sprite-symbol-usage" /><use id="facebook-usage" xlink:href="#facebook" class="sprite-symbol-usage" /><use id="filter-usage" xlink:href="#filter" class="sprite-symbol-usage" /><use id="instagram-usage" xlink:href="#instagram" class="sprite-symbol-usage" /><use id="search-usage" xlink:href="#search" class="sprite-symbol-usage" /><use id="twitter-usage" xlink:href="#twitter" class="sprite-symbol-usage" /></svg>